<svg xmlns="http://www.w3.org/2000/svg" viewBox="0 0 97.67 97.67"><defs><style>.cls-1{fill:#8e3beb;}</style></defs><title>logo</title><g id="Layer_2" data-name="Layer 2"><g id="Layer_1-2" data-name="Layer 1"><path class="cls-1" d="M48.83,0a48.73,48.73,0,0,0-33.5,84.21,29.76,29.76,0,0,0,6.5-12.95l5-38a7.76,7.76,0,0,1,7.69-6.75h30.2a10,10,0,0,1,10,11.34L71.41,62.52a10,10,0,0,1-9.95,8.74h-12S31.3,72.52,31.3,92.75a14.24,14.24,0,0,1-.19,1.48A48.79,48.79,0,1,0,48.83,0Z"/><path class="cls-1" d="M69,40.51A4.54,4.54,0,1,0,64.43,45,4.54,4.54,0,0,0,69,40.51Z"/><path class="cls-1" d="M42.37,36a4.54,4.54,0,1,0,4.53,4.54A4.54,4.54,0,0,0,42.37,36Z"/><path class="cls-1" d="M53.35,62.66A10.6,10.6,0,0,0,64,52.06H42.75A10.59,10.59,0,0,0,53.35,62.66Z"/></g></g></svg>